# written by convert_mb_to_amc()
:FULLY-SPECIFIED
:DEGREES
1
upperback -3.534210 -3.538080 0.173126
rfoot -30.420401 -21.911600
lradius 22.705999
lthumb 11.938900 45.687698
rradius 25.515600
lwrist -17.962400
rhand -21.603901 -17.809500
rhumerus -39.104301 -1.013360 -86.413399
lowerneck -5.552280 0.102446 -0.336101
lhand -14.197200 16.048201
ltibia 43.444302
head 2.822840 0.066817 0.335042
rwrist 13.215100
lfingers 7.125020
rtoes 10.134100
lowerback -1.276230 -2.631640 4.552730
rfingers 7.125020
lclavicle -0.000000 0.000000
upperneck 5.834940 0.097891 0.848413
rfemur -17.136400 12.504200 24.729799
thorax -3.193700 -1.917100 -2.302040
rclavicle -0.000000 0.000000
rtibia 41.049400
lfoot -26.723900 5.796620
lhumerus -37.147999 6.118960 80.498199
rthumb 4.791250 -47.735298
root 39.802242 18.341784 -1.495428 25.812401 -83.435799 -21.488899
ltoes 14.508200
lfemur -20.487499 -17.692499 -18.298300
2
upperback -3.481999 -3.523811 0.134801
rfoot -30.448278 -22.141096
lradius 22.693378
lthumb 11.879298 45.764107
rradius 25.287743
lwrist -17.808918
rhand -18.023432 -18.692270
rhumerus -39.238667 -1.022066 -86.324684
lowerneck -5.549462 0.326006 -0.084994
lhand -14.259091 16.121098
ltibia 43.453712
head 2.845381 0.210026 0.310771
rwrist 13.317616
lfingers 7.125020
rtoes 10.389901
lowerback -1.094637 -2.628755 4.645633
rfingers 7.125020
lclavicle 0.000000 -0.000000
upperneck 5.907903 0.373211 0.872256
rfemur -17.374247 12.622540 24.766195
thorax -3.249506 -1.912304 -2.385703
rclavicle 0.000000 -0.000000
rtibia 41.028156
lfoot -26.601788 5.778114
lhumerus -37.114422 5.736593 80.459679
rthumb 8.247701 -48.511295
root 39.839066 18.344137 -1.528981 25.043671 -83.255531 -20.597576
ltoes 14.239158
lfemur -20.798988 -17.798737 -18.116892
3
upperback -3.472652 -3.507761 0.112977
rfoot -30.349566 -22.140600
lradius 22.638464
lthumb 12.004073 45.551334
rradius 25.408674
lwrist -17.882130
rhand -17.984127 -18.761215
rhumerus -39.223030 -0.948969 -86.375107
lowerneck -5.688125 0.400267 -0.088006
lhand -14.129668 15.915527
ltibia 43.443867
head 2.912426 0.259230 0.327356
rwrist 13.179227
lfingers 7.125020
rtoes 10.448456
lowerback -0.918389 -2.623487 4.554776
rfingers 7.125020
lclavicle 0.000000 0.000000
upperneck 6.029732 0.469043 0.906422
rfemur -17.628979 12.581354 24.794559
thorax -3.333291 -1.902836 -2.349357
rclavicle 0.000000 0.000000
rtibia 41.040150
lfoot -26.560154 5.890323
lhumerus -37.169277 5.821867 80.262321
rthumb 8.285636 -48.578743
root 39.854176 18.349594 -1.566016 24.764275 -83.240578 -20.161196
ltoes 14.222035
lfemur -21.049078 -17.985001 -17.954714
4
upperback -3.303293 -3.531601 0.128817
rfoot -30.237053 -21.929688
lradius 22.914356
lthumb 11.860435 45.662369
rradius 25.601763
lwrist -17.667931
rhand -18.025219 -18.687256
rhumerus -38.781734 -0.908417 -86.515015
lowerneck -5.928630 0.245411 -0.004184
lhand -14.278644 16.018282
ltibia 43.392338
head 2.970525 0.155450 0.293916
rwrist 13.138948
lfingers 7.125020
rtoes 10.450970
lowerback -1.017256 -2.636354 4.312900
rfingers 7.125020
lclavicle 0.000000 0.000000
upperneck 6.062483 0.256772 0.873274
rfemur -17.897568 12.201492 24.898781
thorax -3.086256 -1.898600 -2.208972
rclavicle 0.000000 0.000000
rtibia 40.962772
lfoot -26.479073 5.820170
lhumerus -36.813076 5.810940 80.614647
rthumb 8.245976 -48.506317
root 39.854225 18.358587 -1.608473 24.668821 -83.036385 -19.807158
ltoes 14.190934
lfemur -21.376280 -18.133778 -17.653751
5
upperback -3.080828 -3.552590 0.139988
rfoot -30.030655 -21.607277
lradius 23.024036
lthumb 11.829036 45.811203
rradius 25.745451
lwrist -17.578924
rhand -18.306969 -18.630886
rhumerus -38.387283 -0.722934 -86.924652
lowerneck -6.201495 0.220492 0.025026
lhand -14.311213 16.165306
ltibia 43.307899
head 3.037986 0.139329 0.159561
rwrist 12.999426
lfingers 7.125020
rtoes 10.377155
lowerback -0.761600 -2.661607 4.142031
rfingers 7.125020
lclavicle 0.000000 -0.000000
upperneck 6.107284 0.250503 0.471853
rfemur -18.280716 11.788552 24.913534
thorax -2.989013 -1.896140 -2.096204
rclavicle 0.000000 -0.000000
rtibia 40.970779
lfoot -26.227560 5.630986
lhumerus -36.526516 5.843190 81.010910
rthumb 7.974049 -48.460449
root 39.879372 18.367636 -1.640105 24.702696 -82.940788 -19.605419
ltoes 13.829635
lfemur -21.748844 -17.909620 -17.418550
